<?xml version="1.0" encoding="UTF-8" standalone="no"?>
<!DOCTYPE svg PUBLIC "-//W3C//DTD SVG 1.1//EN" "http://www.w3.org/Graphics/SVG/1.1/DTD/svg11.dtd">
<svg width="100%" height="100%" viewBox="0 0 640 66" version="1.1" xmlns="http://www.w3.org/2000/svg" xmlns:xlink="http://www.w3.org/1999/xlink" xml:space="preserve" xmlns:serif="http://www.serif.com/" style="fill-rule:evenodd;clip-rule:evenodd;stroke-linejoin:round;stroke-miterlimit:2;">
    <g transform="matrix(1,0,0,1,-2031,-159)">
        <g id="about_me" transform="matrix(8.15054,0,0,1,-14522.7,102.875)">
            <rect x="2031" y="57" width="78.522" height="64.839" style="fill:none;"/>
            <clipPath id="_clip1">
                <rect x="2031" y="57" width="78.522" height="64.839"/>
            </clipPath>
            <g clip-path="url(#_clip1)">
                <g transform="matrix(0.992413,0,0,8.0887,1475.11,-2053.31)">
                    <path d="M613.88,268.912L613.88,260.896L616.724,260.896L618.392,266.644L620.084,260.896L622.928,260.896L622.928,268.912L621.08,268.912L621.08,262.612L619.172,268.912L617.612,268.912L615.716,262.612L615.716,268.912L613.88,268.912Z" style="fill:rgb(26,27,31);fill-rule:nonzero;"/>
                </g>
                <g transform="matrix(0.992413,0,0,8.0887,1475.11,-2053.31)">
                    <path d="M623.984,268.912L623.984,260.896L630.152,260.896L630.152,262.564L625.88,262.564L625.88,263.956L628.484,263.956L628.484,265.624L625.88,265.624L625.88,267.244L630.152,267.244L630.152,268.912L623.984,268.912Z" style="fill:rgb(26,27,31);fill-rule:nonzero;"/>
                </g>
                <g transform="matrix(0.122691,0,0,1,1781.81,-102.875)">
                    <path d="M2152.79,224.714L2120.18,224.714L2124.06,213.163L2148.91,213.163L2152.79,224.714ZM2259.17,159.875C2256.44,160.568 2253.89,161.571 2251.5,162.884C2246.46,165.667 2242.51,169.582 2239.66,174.629C2236.82,179.676 2235.39,185.565 2235.39,192.295C2235.39,199.024 2236.82,204.913 2239.66,209.96C2242.51,215.008 2246.46,218.923 2251.5,221.705C2253.89,223.018 2256.44,224.021 2259.17,224.714L2203.65,224.714C2208.89,224.714 2213.49,224.051 2217.43,222.724C2221.38,221.398 2224.44,219.279 2226.61,216.367C2228.78,213.455 2229.86,209.572 2229.86,204.719C2229.86,200.772 2228.9,197.633 2226.99,195.304C2225.09,192.974 2222.61,191.292 2219.57,190.256C2222.03,188.768 2223.92,186.891 2225.25,184.627C2226.58,182.362 2227.24,179.741 2227.24,176.764C2227.24,172.235 2226.15,168.756 2223.99,166.33C2221.82,163.903 2218.89,162.221 2215.2,161.283C2211.51,160.344 2207.31,159.875 2202.58,159.875L2174.24,159.875L2174.24,224.714L2169.49,224.714L2144.93,159.875L2135.03,159.875C2135.03,159.875 2259.17,159.875 2259.17,159.875ZM2278.86,159.875L2471.88,159.875L2471.88,224.714L2408.07,224.714L2408.07,173.367L2428.94,173.367L2428.94,159.875L2371.96,159.875L2371.96,173.367L2392.83,173.367L2392.83,224.714L2349.03,224.714C2353.67,223.549 2357.27,221.511 2359.83,218.599C2364.1,213.746 2366.23,206.337 2366.23,196.371L2366.23,159.875L2350.9,159.875L2350.9,197.633C2350.9,200.804 2350.59,203.57 2349.98,205.932C2349.36,208.294 2348.16,210.122 2346.39,211.416C2344.61,212.711 2341.94,213.358 2338.38,213.358C2334.82,213.358 2332.13,212.711 2330.32,211.416C2328.51,210.122 2327.3,208.294 2326.68,205.932C2326.07,203.57 2325.76,200.804 2325.76,197.633L2325.76,159.875L2310.42,159.875L2310.42,196.371C2310.42,206.337 2312.54,213.746 2316.78,218.599C2319.32,221.511 2322.93,223.549 2327.61,224.714L2278.86,224.714C2281.6,224.021 2284.16,223.018 2286.54,221.705C2291.59,218.923 2295.55,215.008 2298.43,209.96C2301.31,204.913 2302.75,199.024 2302.75,192.295C2302.75,185.565 2301.31,179.676 2298.43,174.629C2295.55,169.582 2291.59,165.667 2286.54,162.884C2284.16,161.571 2281.6,160.568 2278.86,159.875ZM2268.98,213.261C2272.15,213.261 2275.06,212.468 2277.71,210.882C2280.37,209.297 2282.48,206.951 2284.07,203.845C2285.66,200.739 2286.45,196.889 2286.45,192.295C2286.45,187.7 2285.66,183.85 2284.07,180.744C2282.48,177.638 2280.37,175.292 2277.71,173.707C2275.06,172.121 2272.15,171.329 2268.98,171.329C2265.87,171.329 2262.99,172.121 2260.34,173.707C2257.68,175.292 2255.57,177.638 2253.98,180.744C2252.39,183.85 2251.6,187.7 2251.6,192.295C2251.6,196.889 2252.39,200.739 2253.98,203.845C2255.57,206.951 2257.68,209.297 2260.34,210.882C2262.99,212.468 2265.87,213.261 2268.98,213.261ZM2189.58,211.999L2203.75,211.999C2207.05,211.999 2209.52,211.335 2211.17,210.009C2212.82,208.682 2213.65,206.887 2213.65,204.622C2213.65,202.357 2212.82,200.577 2211.17,199.283C2209.52,197.989 2207.05,197.342 2203.75,197.342L2189.58,197.342L2189.58,211.999ZM2128.23,200.739L2144.73,200.739L2136.39,176.085L2128.23,200.739ZM2189.58,185.5L2203.07,185.5C2205.66,185.5 2207.68,184.902 2209.14,183.704C2210.59,182.507 2211.32,180.906 2211.32,178.9C2211.32,176.829 2210.59,175.227 2209.14,174.095C2207.68,172.963 2205.66,172.396 2203.07,172.396L2189.58,172.396L2189.58,185.5Z" style="fill:rgb(26,27,31);"/>
                </g>
                <g transform="matrix(0.992413,0,0,8.0887,1475.11,-2053.31)">
                    <text x="569.036px" y="268.912px" style="font-family:'AtkinsonHyperlegible-Bold', 'Atkinson Hyperlegible';font-weight:700;font-size:12px;fill-opacity:0;">ABOUT ME</text>
                </g>
            </g>
        </g>
    </g>
</svg>
