<?xml version="1.0" encoding="UTF-8" standalone="no"?>
<!DOCTYPE svg PUBLIC "-//W3C//DTD SVG 1.1//EN" "http://www.w3.org/Graphics/SVG/1.1/DTD/svg11.dtd">
<svg width="100%" height="100%" viewBox="0 0 720 65" version="1.1" xmlns="http://www.w3.org/2000/svg" xmlns:xlink="http://www.w3.org/1999/xlink" xml:space="preserve" xmlns:serif="http://www.serif.com/" style="fill-rule:evenodd;clip-rule:evenodd;stroke-linejoin:round;stroke-miterlimit:2;">
    <rect id="about_me" x="0" y="-0" width="720" height="64.839" style="fill:none;"/>
    <clipPath id="_clip1">
        <rect x="0" y="-0" width="720" height="64.839"/>
    </clipPath>
    <g clip-path="url(#_clip1)">
        <path d="M475.313,64.839L475.313,0L498.317,0L511.809,46.494L525.495,0L548.499,0L548.499,64.839L533.551,64.839L533.551,13.88L518.118,64.839L505.5,64.839L490.163,13.88L490.163,64.839L475.313,64.839Z" style="fill:rgb(26,27,31);fill-rule:nonzero;"/>
        <path d="M557.041,64.839L557.041,0L606.932,0L606.932,13.492L572.377,13.492L572.377,24.751L593.44,24.751L593.44,38.243L572.377,38.243L572.377,51.347L606.932,51.347L606.932,64.839L557.041,64.839Z" style="fill:rgb(26,27,31);fill-rule:nonzero;"/>
        <path d="M138.531,0L138.981,-1.165L483.639,-1.165L483.639,66.004L113.068,66.004L113.517,64.839L129.763,64.839L133.646,53.288L158.494,53.288L162.377,64.839L179.072,64.839L154.515,0L138.531,0ZM347.964,66.004C337.805,66.004 330.606,63.577 326.367,58.724C322.129,53.871 320.009,46.462 320.009,36.496L320.009,0L335.346,0L335.346,37.758C335.346,40.929 335.653,43.695 336.268,46.057C336.882,48.419 338.096,50.247 339.908,51.541C341.72,52.835 344.405,53.483 347.964,53.483C351.523,53.483 354.192,52.835 355.972,51.541C357.751,50.247 358.948,48.419 359.563,46.057C360.178,43.695 360.485,40.929 360.485,37.758L360.485,0L375.822,0L375.822,36.496C375.822,46.462 373.686,53.871 369.415,58.724C365.144,63.577 357.994,66.004 347.964,66.004ZM278.563,66.004C271.963,66.004 266.139,64.613 261.091,61.83C256.044,59.048 252.097,55.133 249.249,50.085C246.402,45.038 244.979,39.149 244.979,32.42C244.979,25.69 246.402,19.801 249.249,14.754C252.097,9.706 256.044,5.792 261.091,3.009C266.139,0.226 271.963,-1.165 278.563,-1.165C285.228,-1.165 291.084,0.226 296.132,3.009C301.179,5.792 305.142,9.706 308.022,14.754C310.902,19.801 312.341,25.69 312.341,32.42C312.341,39.149 310.902,45.038 308.022,50.085C305.142,55.133 301.179,59.048 296.132,61.83C291.084,64.613 285.228,66.004 278.563,66.004ZM183.828,64.839L183.828,0L212.171,0C216.895,0 221.101,0.469 224.789,1.407C228.478,2.346 231.406,4.028 233.574,6.455C235.741,8.881 236.825,12.36 236.825,16.889C236.825,19.866 236.162,22.487 234.835,24.751C233.509,27.016 231.616,28.893 229.157,30.381C232.198,31.417 234.674,33.099 236.583,35.429C238.491,37.758 239.446,40.896 239.446,44.844C239.446,49.697 238.362,53.58 236.194,56.492C234.027,59.403 230.969,61.523 227.022,62.849C223.074,64.176 218.48,64.839 213.239,64.839L183.828,64.839ZM402.417,64.839L402.417,13.492L381.548,13.492L381.548,0L438.525,0L438.525,13.492L417.656,13.492L417.656,64.839L402.417,64.839ZM278.563,53.385C281.734,53.385 284.646,52.593 287.299,51.007C289.952,49.422 292.071,47.076 293.656,43.97C295.242,40.864 296.035,37.014 296.035,32.42C296.035,27.825 295.242,23.975 293.656,20.869C292.071,17.763 289.952,15.417 287.299,13.832C284.646,12.246 281.734,11.454 278.563,11.454C275.457,11.454 272.577,12.246 269.924,13.832C267.271,15.417 265.152,17.763 263.566,20.869C261.981,23.975 261.188,27.825 261.188,32.42C261.188,37.014 261.981,40.864 263.566,43.97C265.152,47.076 267.271,49.422 269.924,51.007C272.577,52.593 275.457,53.385 278.563,53.385ZM199.164,52.124L213.336,52.124C216.636,52.124 219.111,51.46 220.761,50.134C222.411,48.807 223.236,47.012 223.236,44.747C223.236,42.482 222.411,40.702 220.761,39.408C219.111,38.114 216.636,37.467 213.336,37.467L199.164,37.467L199.164,52.124ZM137.819,40.864L154.32,40.864L145.973,16.21L137.819,40.864ZM199.164,25.625L212.656,25.625C215.245,25.625 217.267,25.026 218.723,23.829C220.179,22.632 220.907,21.031 220.907,19.025C220.907,16.954 220.179,15.352 218.723,14.22C217.267,13.088 215.245,12.521 212.656,12.521L199.164,12.521L199.164,25.625Z" style="fill:rgb(26,27,31);"/>
        <text x="112.583px" y="64.839px" style="font-family:'AtkinsonHyperlegible-Bold', 'Atkinson Hyperlegible';font-weight:700;font-size:97.064px;fill-opacity:0;">ABOUT ME</text>
    </g>
</svg>
