<?xml version="1.0" encoding="UTF-8" standalone="no"?>
<!DOCTYPE svg PUBLIC "-//W3C//DTD SVG 1.1//EN" "http://www.w3.org/Graphics/SVG/1.1/DTD/svg11.dtd">
<svg width="100%" height="100%" viewBox="0 0 720 65" version="1.1" xmlns="http://www.w3.org/2000/svg" xmlns:xlink="http://www.w3.org/1999/xlink" xml:space="preserve" xmlns:serif="http://www.serif.com/" style="fill-rule:evenodd;clip-rule:evenodd;stroke-linejoin:round;stroke-miterlimit:2;">
    <rect id="gallery" x="0" y="0" width="720" height="64.839" style="fill:none;"/>
    <clipPath id="_clip1">
        <rect x="0" y="0" width="720" height="64.839"/>
    </clipPath>
    <g clip-path="url(#_clip1)">
        <path d="M202.028,64.839L189.175,64.839C193.725,63.537 197.298,61.143 199.892,57.656L202.028,64.839ZM191.646,0L240.659,0L216.102,64.839L212.122,64.839L212.122,28.149L182.226,28.149L182.226,40.573L196.786,40.573L196.786,42.417C196.786,45.135 196.074,47.303 194.651,48.92C193.227,50.538 191.415,51.687 189.215,52.366C187.015,53.046 184.718,53.385 182.324,53.385C177.276,53.385 173.199,51.557 170.093,47.901C166.987,44.245 165.434,39.02 165.434,32.225C165.434,27.631 166.178,23.797 167.667,20.723C169.155,17.65 171.161,15.336 173.685,13.783C176.208,12.23 178.991,11.454 182.032,11.454C185.397,11.454 188.164,12.068 190.331,13.298C192.499,14.527 194.101,15.983 195.136,17.666L208.337,12.23C205.748,7.83 202.173,4.497 197.611,2.232C195.72,1.294 193.732,0.549 191.646,0ZM265.411,64.839L232.797,64.839L236.68,53.288L261.528,53.288L265.411,64.839ZM286.862,64.839L282.106,64.839L257.548,0L286.862,0L286.862,64.839ZM302.198,0L338.986,0L338.986,64.839L333.259,64.839L333.259,51.347L302.198,51.347L302.198,0ZM354.322,0L391.109,0L391.109,64.839L385.382,64.839L385.382,51.347L354.322,51.347L354.322,0ZM441,0L447.407,0L447.407,64.839L441,64.839L441,51.347L406.445,51.347L406.445,38.243L427.508,38.243L427.508,24.751L406.445,24.751L406.445,13.492L441,13.492L441,0ZM487.203,64.839L462.743,64.839L462.743,40.379L469.634,40.379L487.203,64.839ZM530.785,39.602L530.785,64.839L504.966,64.839L486.135,38.729C490.277,37.629 493.464,36.076 495.696,34.07C497.929,32.064 499.498,29.847 500.404,27.421C501.31,24.994 501.763,22.551 501.763,20.092C501.763,14.721 500.485,10.58 497.929,7.668C495.373,4.756 491.878,2.75 487.446,1.65C483.013,0.55 477.982,0 472.352,0L506.033,0L530.785,39.602ZM240.853,40.864L257.354,40.864L249.007,16.21L240.853,40.864ZM462.743,27.566L472.837,27.566C476.461,27.566 479.486,27.097 481.913,26.159C484.34,25.221 485.553,23.263 485.553,20.286C485.553,17.245 484.34,15.255 481.913,14.317C479.486,13.379 476.461,12.91 472.837,12.91L462.743,12.91L462.743,27.566ZM538.356,24.946L523.893,0L552.819,0L538.356,24.946Z" style="fill:rgb(26,27,31);"/>
        <text x="145.827px" y="64.839px" style="font-family:'AtkinsonHyperlegible-Bold', 'Atkinson Hyperlegible';font-weight:700;font-size:97.064px;fill-opacity:0;">GALLER<tspan x="505.063px " y="64.839px ">Y</tspan></text>
    </g>
</svg>
