<?xml version="1.0" encoding="UTF-8" standalone="no"?>
<!DOCTYPE svg PUBLIC "-//W3C//DTD SVG 1.1//EN" "http://www.w3.org/Graphics/SVG/1.1/DTD/svg11.dtd">
<svg width="100%" height="100%" viewBox="0 0 720 65" version="1.1" xmlns="http://www.w3.org/2000/svg" xmlns:xlink="http://www.w3.org/1999/xlink" xml:space="preserve" xmlns:serif="http://www.serif.com/" style="fill-rule:evenodd;clip-rule:evenodd;stroke-linejoin:round;stroke-miterlimit:2;">
    <rect id="my_pictures" x="-0" y="-0.012" width="720" height="64.839" style="fill:none;"/>
    <clipPath id="_clip1">
        <rect x="-0" y="-0.012" width="720" height="64.839"/>
    </clipPath>
    <g clip-path="url(#_clip1)">
        <path d="M278.223,64.827L278.223,52.791L287.347,52.791L287.347,12.024L278.223,12.024L278.223,-0.012L311.613,-0.012L311.613,12.024L302.683,12.024L302.683,52.791L311.613,52.791L311.613,64.827L278.223,64.827Z" style="fill:rgb(26,27,31);fill-rule:nonzero;"/>
        <path d="M350.245,65.992C343.515,65.992 337.724,64.633 332.87,61.915C328.017,59.198 324.296,55.315 321.708,50.268C319.12,45.22 317.825,39.267 317.825,32.408C317.825,25.549 319.168,19.611 321.854,14.596C324.539,9.581 328.341,5.699 333.259,2.949C338.177,0.199 343.968,-1.177 350.633,-1.177C356.781,-1.177 362.135,0.182 366.697,2.9C371.259,5.618 374.77,9.274 377.229,13.868L363.64,18.819C362.216,16.166 360.275,14.273 357.816,13.14C355.357,12.008 352.801,11.442 350.148,11.442C347.171,11.442 344.454,12.267 341.995,13.917C339.536,15.567 337.594,17.961 336.171,21.1C334.747,24.238 334.035,28.007 334.035,32.408C334.035,39.202 335.604,44.395 338.743,47.987C341.881,51.578 345.748,53.374 350.342,53.374C352.801,53.374 355.341,52.856 357.962,51.821C360.582,50.785 362.637,48.876 364.125,46.094L377.617,51.044C375.029,55.638 371.357,59.278 366.6,61.964C361.844,64.649 356.392,65.992 350.245,65.992Z" style="fill:rgb(26,27,31);fill-rule:nonzero;"/>
        <path d="M402.077,64.827L402.077,13.48L381.209,13.48L381.209,-0.012L438.185,-0.012L438.185,13.48L417.317,13.48L417.317,64.827L402.077,64.827Z" style="fill:rgb(26,27,31);fill-rule:nonzero;"/>
        <path d="M473.517,65.992C463.357,65.992 456.159,63.565 451.92,58.712C447.682,53.859 445.562,46.45 445.562,36.484L445.562,-0.012L460.898,-0.012L460.898,37.746C460.898,40.917 461.206,43.683 461.821,46.045C462.435,48.407 463.649,50.235 465.461,51.529C467.272,52.824 469.958,53.471 473.517,53.471C477.076,53.471 479.745,52.824 481.525,51.529C483.304,50.235 484.501,48.407 485.116,46.045C485.731,43.683 486.038,40.917 486.038,37.746L486.038,-0.012L501.374,-0.012L501.374,36.484C501.374,38.976 501.241,41.307 500.974,43.479C500.173,49.995 498.171,55.072 494.968,58.712C490.697,63.565 483.547,65.992 473.517,65.992Z" style="fill:rgb(26,27,31);fill-rule:nonzero;"/>
        <path d="M509.916,64.827L509.916,-0.012L534.862,-0.012C540.491,-0.012 545.523,0.538 549.955,1.638C554.388,2.738 557.882,4.744 560.438,7.656C562.994,10.568 564.272,14.71 564.272,20.081C564.272,22.54 563.819,24.982 562.913,27.409C562.007,29.836 560.438,32.052 558.206,34.058C555.973,36.064 552.786,37.617 548.645,38.717L567.475,64.827L549.712,64.827L532.144,40.367L525.252,40.367L525.252,64.827L509.916,64.827ZM525.252,27.555L535.347,27.555C538.971,27.555 541.996,27.085 544.422,26.147C546.849,25.209 548.062,23.251 548.062,20.275C548.062,17.233 546.849,15.243 544.422,14.305C541.996,13.367 538.971,12.898 535.347,12.898L525.252,12.898L525.252,27.555Z" style="fill:rgb(26,27,31);fill-rule:nonzero;"/>
        <path d="M573.396,64.827L573.396,-0.012L623.287,-0.012L623.287,13.48L588.732,13.48L588.732,24.74L609.795,24.74L609.795,38.232L588.732,38.232L588.732,51.335L623.287,51.335L623.287,64.827L573.396,64.827Z" style="fill:rgb(26,27,31);fill-rule:nonzero;"/>
        <path d="M655.901,65.992C648.848,65.992 642.91,64.552 638.09,61.673C633.269,58.793 629.855,54.765 627.849,49.588L641.827,44.541C642.733,47.647 644.431,49.944 646.922,51.432C649.414,52.921 652.439,53.665 655.998,53.665C657.875,53.665 659.686,53.455 661.434,53.034C663.181,52.613 664.637,51.902 665.802,50.899C666.966,49.896 667.549,48.553 667.549,46.87C667.549,44.605 666.449,42.842 664.248,41.58C662.048,40.318 659.201,39.364 655.707,38.717L647.845,37.164C644.35,36.452 641.099,35.368 638.09,33.912C635.081,32.456 632.67,30.515 630.858,28.088C629.046,25.662 628.141,22.604 628.141,18.916C628.141,15.421 628.949,12.412 630.567,9.889C632.185,7.365 634.336,5.294 637.022,3.677C639.707,2.059 642.668,0.846 645.903,0.037C649.139,-0.772 652.374,-1.177 655.61,-1.177C659.104,-1.177 662.485,-0.691 665.753,0.279C669.021,1.25 671.949,2.755 674.537,4.793C677.126,6.831 679.099,9.533 680.458,12.898L666.578,17.945C665.737,15.745 664.232,14.063 662.065,12.898C659.897,11.733 657.292,11.151 654.251,11.151C651.274,11.151 648.799,11.684 646.825,12.752C644.852,13.82 643.865,15.357 643.865,17.363C643.865,18.98 644.544,20.372 645.903,21.537C647.262,22.701 649.042,23.51 651.242,23.963L659.978,25.71C662.631,26.228 665.316,26.891 668.034,27.7C670.752,28.509 673.259,29.577 675.557,30.903C677.854,32.23 679.714,33.993 681.138,36.193C682.561,38.393 683.273,41.176 683.273,44.541C683.273,47.97 682.48,51.028 680.895,53.713C679.31,56.399 677.207,58.647 674.586,60.459C671.965,62.271 669.037,63.646 665.802,64.585C662.566,65.523 659.266,65.992 655.901,65.992Z" style="fill:rgb(26,27,31);fill-rule:nonzero;"/>
        <path d="M225.927,-0.012L241.145,-0.012C246.774,-0.012 251.806,0.571 256.238,1.735C260.671,2.9 264.165,5.003 266.721,8.045C269.277,11.086 270.555,15.454 270.555,21.148C270.555,26.778 269.277,31.13 266.721,34.203C264.165,37.277 260.671,39.396 256.238,40.561C251.806,41.726 246.774,42.308 241.145,42.308L231.535,42.308L231.535,64.827L225.927,64.827L225.927,65.992L41.864,65.992L41.864,64.827L51.578,64.827L51.578,13.868L66.914,64.827L79.532,64.827L94.966,13.868L94.966,64.827L109.913,64.827L109.913,-0.012L86.909,-0.012L73.223,46.482L59.731,-0.012L41.864,-0.012L41.864,-1.177L225.927,-1.177L225.927,-0.012ZM139.906,64.827L139.906,39.59L115.155,-0.012L133.015,-0.012L147.477,24.934L161.94,-0.012L179.897,-0.012L155.145,39.59L155.145,64.827L139.906,64.827ZM231.535,29.593L241.63,29.593C244.024,29.593 246.176,29.366 248.085,28.913C249.994,28.46 251.514,27.619 252.647,26.39C253.779,25.16 254.345,23.413 254.345,21.148C254.345,18.883 253.779,17.152 252.647,15.955C251.514,14.758 249.994,13.949 248.085,13.529C246.176,13.108 244.024,12.898 241.63,12.898L231.535,12.898L231.535,29.593Z" style="fill:rgb(26,27,31);"/>
        <text x="32.456px" y="64.827px" style="font-family:'AtkinsonHyperlegible-Bold', 'Atkinson Hyperlegible';font-weight:700;font-size:97.064px;fill-opacity:0;">MY PI<tspan x="314.428px 379.753px 441.291px " y="64.827px 64.827px 64.827px ">CTU</tspan>RES</text>
    </g>
</svg>
