<?xml version="1.0" encoding="UTF-8" standalone="no"?>
<!DOCTYPE svg PUBLIC "-//W3C//DTD SVG 1.1//EN" "http://www.w3.org/Graphics/SVG/1.1/DTD/svg11.dtd">
<svg width="100%" height="100%" viewBox="0 0 720 65" version="1.1" xmlns="http://www.w3.org/2000/svg" xmlns:xlink="http://www.w3.org/1999/xlink" xml:space="preserve" xmlns:serif="http://www.serif.com/" style="fill-rule:evenodd;clip-rule:evenodd;stroke-linejoin:round;stroke-miterlimit:2;">
    <rect id="my_projects" x="0" y="0" width="720" height="64.839" style="fill:none;"/>
    <clipPath id="_clip1">
        <rect x="0" y="0" width="720" height="64.839"/>
    </clipPath>
    <g clip-path="url(#_clip1)">
        <path d="M268.517,64.839L268.517,0L293.462,0C299.092,0 304.123,0.55 308.556,1.65C312.988,2.75 316.483,4.756 319.039,7.668C321.595,10.58 322.873,14.721 322.873,20.092C322.873,22.551 322.42,24.994 321.514,27.421C320.608,29.847 319.039,32.064 316.806,34.07C314.574,36.076 311.387,37.629 307.245,38.729L326.076,64.839L308.313,64.839L290.745,40.379L283.853,40.379L283.853,64.839L268.517,64.839ZM283.853,27.566L293.948,27.566C297.571,27.566 300.597,27.097 303.023,26.159C305.45,25.221 306.663,23.263 306.663,20.286C306.663,17.245 305.45,15.255 303.023,14.317C300.597,13.379 297.571,12.91 293.948,12.91L283.853,12.91L283.853,27.566Z" style="fill:rgb(26,27,31);fill-rule:nonzero;"/>
        <path d="M362.669,66.004C356.069,66.004 350.245,64.613 345.198,61.83C340.15,59.048 336.203,55.133 333.356,50.085C330.509,45.038 329.085,39.149 329.085,32.42C329.085,25.69 330.509,19.801 333.356,14.754C336.203,9.706 340.15,5.792 345.198,3.009C350.245,0.226 356.069,-1.165 362.669,-1.165C369.334,-1.165 375.191,0.226 380.238,3.009C385.285,5.792 389.249,9.706 392.128,14.754C395.008,19.801 396.448,25.69 396.448,32.42C396.448,39.149 395.008,45.038 392.128,50.085C389.249,55.133 385.285,59.048 380.238,61.83C375.191,64.613 369.334,66.004 362.669,66.004ZM362.669,53.385C365.84,53.385 368.752,52.593 371.405,51.007C374.058,49.422 376.177,47.076 377.763,43.97C379.348,40.864 380.141,37.014 380.141,32.42C380.141,27.825 379.348,23.975 377.763,20.869C376.177,17.763 374.058,15.417 371.405,13.832C368.752,12.246 365.84,11.454 362.669,11.454C359.563,11.454 356.684,12.246 354.031,13.832C351.377,15.417 349.258,17.763 347.673,20.869C346.087,23.975 345.295,27.825 345.295,32.42C345.295,37.014 346.087,40.864 347.673,43.97C349.258,47.076 351.377,49.422 354.031,51.007C356.684,52.593 359.563,53.385 362.669,53.385Z" style="fill:rgb(26,27,31);fill-rule:nonzero;"/>
        <path d="M424.596,66.004C417.802,66.004 412.399,64.354 408.387,61.054C404.375,57.753 401.689,53.353 400.33,47.853L414.405,42.708C414.793,44.52 415.391,46.284 416.2,47.998C417.009,49.713 418.109,51.121 419.501,52.221C420.892,53.321 422.59,53.871 424.596,53.871C427.832,53.871 430.307,52.852 432.022,50.813C433.737,48.775 434.594,45.167 434.594,39.991L434.594,0L449.93,0L449.93,39.991C449.93,48.079 447.779,54.437 443.475,59.064C439.172,63.69 432.879,66.004 424.596,66.004Z" style="fill:rgb(26,27,31);fill-rule:nonzero;"/>
        <path d="M458.472,64.839L458.472,0L508.363,0L508.363,13.492L473.808,13.492L473.808,24.751L494.871,24.751L494.871,38.243L473.808,38.243L473.808,51.347L508.363,51.347L508.363,64.839L458.472,64.839Z" style="fill:rgb(26,27,31);fill-rule:nonzero;"/>
        <path d="M544.471,66.004C537.741,66.004 531.95,64.645 527.096,61.927C522.243,59.209 518.522,55.327 515.934,50.279C513.346,45.232 512.051,39.279 512.051,32.42C512.051,25.56 513.394,19.623 516.08,14.608C518.765,9.593 522.567,5.711 527.485,2.96C532.403,0.21 538.194,-1.165 544.859,-1.165C551.007,-1.165 556.361,0.194 560.923,2.912C565.485,5.63 568.996,9.286 571.455,13.88L557.866,18.831C556.442,16.177 554.501,14.285 552.042,13.152C549.583,12.02 547.027,11.454 544.374,11.454C541.397,11.454 538.679,12.279 536.22,13.929C533.762,15.579 531.82,17.973 530.397,21.112C528.973,24.25 528.261,28.019 528.261,32.42C528.261,39.214 529.83,44.407 532.969,47.998C536.107,51.59 539.974,53.385 544.568,53.385C547.027,53.385 549.567,52.868 552.188,51.832C554.808,50.797 556.863,48.888 558.351,46.106L571.843,51.056C569.255,55.65 565.582,59.29 560.826,61.976C556.07,64.661 550.618,66.004 544.471,66.004Z" style="fill:rgb(26,27,31);fill-rule:nonzero;"/>
        <path d="M596.303,64.839L596.303,13.492L575.435,13.492L575.435,0L632.411,0L632.411,13.492L611.543,13.492L611.543,64.839L596.303,64.839Z" style="fill:rgb(26,27,31);fill-rule:nonzero;"/>
        <path d="M664.346,66.004C657.292,66.004 651.355,64.564 646.534,61.684C641.713,58.805 638.3,54.777 636.294,49.6L650.271,44.553C651.177,47.659 652.876,49.956 655.367,51.444C657.858,52.932 660.884,53.677 664.443,53.677C666.319,53.677 668.131,53.466 669.878,53.046C671.625,52.625 673.081,51.913 674.246,50.91C675.411,49.907 675.993,48.565 675.993,46.882C675.993,44.617 674.893,42.854 672.693,41.592C670.493,40.33 667.646,39.376 664.151,38.729L656.289,37.176C652.795,36.464 649.543,35.38 646.534,33.924C643.525,32.468 641.115,30.527 639.303,28.1C637.491,25.674 636.585,22.616 636.585,18.928C636.585,15.433 637.394,12.424 639.012,9.901C640.629,7.377 642.781,5.306 645.467,3.688C648.152,2.071 651.112,0.857 654.348,0.049C657.583,-0.76 660.819,-1.165 664.054,-1.165C667.549,-1.165 670.93,-0.679 674.198,0.291C677.465,1.262 680.394,2.766 682.982,4.805C685.57,6.843 687.544,9.545 688.903,12.91L675.023,17.957C674.181,15.757 672.677,14.074 670.509,12.91C668.341,11.745 665.737,11.162 662.695,11.162C659.719,11.162 657.244,11.696 655.27,12.764C653.296,13.832 652.31,15.369 652.31,17.375C652.31,18.992 652.989,20.384 654.348,21.548C655.707,22.713 657.486,23.522 659.686,23.975L668.422,25.722C671.075,26.24 673.761,26.903 676.479,27.712C679.196,28.521 681.704,29.588 684.001,30.915C686.298,32.242 688.159,34.005 689.582,36.205C691.006,38.405 691.718,41.188 691.718,44.553C691.718,47.982 690.925,51.04 689.34,53.725C687.754,56.411 685.651,58.659 683.03,60.471C680.41,62.283 677.482,63.658 674.246,64.596C671.011,65.535 667.71,66.004 664.346,66.004Z" style="fill:rgb(26,27,31);fill-rule:nonzero;"/>
        <path d="M215.161,0L232.7,0C238.33,0 243.361,0.582 247.794,1.747C252.226,2.912 255.72,5.015 258.276,8.056C260.832,11.098 262.111,15.466 262.111,21.16C262.111,26.79 260.832,31.142 258.276,34.215C255.72,37.289 252.226,39.408 247.794,40.573C243.361,41.738 238.33,42.32 232.7,42.32L223.091,42.32L223.091,64.839L146.701,64.839L146.701,39.602L171.452,0L153.495,0L139.033,24.946L124.57,0L106.71,0L131.462,39.602L131.462,64.839L101.469,64.839L101.469,0L78.465,0L64.778,46.494L51.287,0L34.108,0L34.108,-1.165L215.161,-1.165L215.161,0ZM58.469,64.839L43.133,64.839L43.133,13.88L58.469,64.839ZM86.521,64.839L71.088,64.839L86.521,13.88L86.521,64.839ZM223.091,29.605L233.185,29.605C235.58,29.605 237.731,29.378 239.64,28.925C241.549,28.472 243.07,27.631 244.202,26.402C245.335,25.172 245.901,23.425 245.901,21.16C245.901,18.895 245.335,17.164 244.202,15.967C243.07,14.77 241.549,13.961 239.64,13.54C237.731,13.12 235.58,12.91 233.185,12.91L223.091,12.91L223.091,29.605Z" style="fill:rgb(26,27,31);"/>
        <text x="24.011px" y="64.839px" style="font-family:'AtkinsonHyperlegible-Bold', 'Atkinson Hyperlegible';font-weight:700;font-size:97.064px;fill-opacity:0;">MY PR<tspan x="325.688px " y="64.839px ">O</tspan>JE<tspan x="508.654px " y="64.839px ">C</tspan>TS</text>
    </g>
</svg>
