<?xml version="1.0" encoding="UTF-8" standalone="no"?>
<!DOCTYPE svg PUBLIC "-//W3C//DTD SVG 1.1//EN" "http://www.w3.org/Graphics/SVG/1.1/DTD/svg11.dtd">
<svg width="100%" height="100%" viewBox="0 0 720 65" version="1.1" xmlns="http://www.w3.org/2000/svg" xmlns:xlink="http://www.w3.org/1999/xlink" xml:space="preserve" xmlns:serif="http://www.serif.com/" style="fill-rule:evenodd;clip-rule:evenodd;stroke-linejoin:round;stroke-miterlimit:2;">
    <rect id="projects" x="-0" y="-0" width="720" height="64.839" style="fill:none;"/>
    <clipPath id="_clip1">
        <rect x="-0" y="-0" width="720" height="64.839"/>
    </clipPath>
    <g clip-path="url(#_clip1)">
        <path d="M272.739,-1.165C266.139,-1.165 260.315,0.226 255.267,3.009C250.22,5.792 246.273,9.706 243.426,14.754C240.578,19.801 239.155,25.69 239.155,32.42C239.155,39.149 240.578,45.038 243.426,50.085C246.273,55.133 250.22,59.048 255.267,61.83C260.315,64.613 266.139,66.004 272.739,66.004L123,66.004L123,64.839L133.16,64.839L133.16,42.32L142.77,42.32C148.4,42.32 153.431,41.738 157.863,40.573C162.296,39.408 165.79,37.289 168.346,34.215C170.902,31.142 172.18,26.79 172.18,21.16C172.18,15.466 170.902,11.098 168.346,8.056C165.79,5.015 162.296,2.912 157.863,1.747C153.431,0.582 148.4,0 142.77,0L123,0L123,-1.165L272.739,-1.165ZM454.929,-1.165C448.264,-1.165 442.472,0.21 437.554,2.96C432.637,5.711 428.835,9.593 426.149,14.608C423.464,19.623 422.121,25.56 422.121,32.42C422.121,39.279 423.415,45.232 426.004,50.279C428.592,55.327 432.313,59.209 437.166,61.927C442.019,64.645 447.811,66.004 454.541,66.004L334.666,66.004C342.949,66.004 349.242,63.69 353.545,59.064C357.848,54.437 360,48.079 360,39.991L360,0L344.664,0L344.664,39.991C344.664,45.167 343.806,48.775 342.092,50.813C340.377,52.852 337.902,53.871 334.666,53.871C332.66,53.871 330.962,53.321 329.57,52.221C328.179,51.121 327.079,49.713 326.27,47.998C325.461,46.284 324.863,44.52 324.474,42.708L310.4,47.853C311.759,53.353 314.444,57.753 318.456,61.054C322.468,64.354 327.872,66.004 334.666,66.004L272.739,66.004C279.404,66.004 285.26,64.613 290.308,61.83C295.355,59.048 299.319,55.133 302.198,50.085C305.078,45.038 306.517,39.149 306.517,32.42C306.517,25.69 305.078,19.801 302.198,14.754C299.319,9.706 295.355,5.792 290.308,3.009C285.26,0.226 279.404,-1.165 272.739,-1.165L454.929,-1.165ZM574.124,-1.165C570.889,-1.165 567.653,-0.76 564.418,0.049C561.182,0.857 558.222,2.071 555.536,3.688C552.851,5.306 550.699,7.377 549.082,9.901C547.464,12.424 546.655,15.433 546.655,18.928C546.655,22.616 547.561,25.674 549.373,28.1C551.185,30.527 553.595,32.468 556.604,33.924C559.613,35.38 562.865,36.464 566.359,37.176L574.221,38.729C577.716,39.376 580.563,40.33 582.763,41.592C584.963,42.854 586.063,44.617 586.063,46.882C586.063,48.565 585.481,49.907 584.316,50.91C583.151,51.913 581.695,52.625 579.948,53.046C578.201,53.466 576.389,53.677 574.512,53.677C570.953,53.677 567.928,52.932 565.437,51.444C562.946,49.956 561.247,47.659 560.341,44.553L546.364,49.6C548.37,54.777 551.783,58.805 556.604,61.684C561.425,64.564 567.362,66.004 574.415,66.004L454.541,66.004C460.688,66.004 466.14,64.661 470.896,61.976C475.652,59.29 479.325,55.65 481.913,51.056L468.421,46.106C466.933,48.888 464.878,50.797 462.257,51.832C459.637,52.868 457.097,53.385 454.638,53.385C450.043,53.385 446.177,51.59 443.039,47.998C439.9,44.407 438.331,39.214 438.331,32.42C438.331,28.019 439.043,24.25 440.466,21.112C441.89,17.973 443.831,15.579 446.29,13.929C448.749,12.279 451.467,11.454 454.444,11.454C457.097,11.454 459.653,12.02 462.112,13.152C464.571,14.285 466.512,16.177 467.936,18.831L481.525,13.88C479.066,9.286 475.555,5.63 470.993,2.912C466.431,0.194 461.076,-1.165 454.929,-1.165L574.124,-1.165ZM368.542,64.839L368.542,0L418.433,0L418.433,13.492L383.878,13.492L383.878,24.751L404.941,24.751L404.941,38.243L383.878,38.243L383.878,51.347L418.433,51.347L418.433,64.839L368.542,64.839ZM506.373,64.839L506.373,13.492L485.504,13.492L485.504,0L542.481,0L542.481,13.492L521.612,13.492L521.612,64.839L506.373,64.839ZM178.587,64.839L178.587,0L203.532,0C209.162,0 214.193,0.55 218.626,1.65C223.058,2.75 226.553,4.756 229.109,7.668C231.665,10.58 232.943,14.721 232.943,20.092C232.943,22.551 232.49,24.994 231.584,27.421C230.678,29.847 229.109,32.064 226.876,34.07C224.644,36.076 221.457,37.629 217.315,38.729L236.146,64.839L218.383,64.839L200.814,40.379L193.923,40.379L193.923,64.839L178.587,64.839ZM272.739,53.385C275.91,53.385 278.822,52.593 281.475,51.007C284.128,49.422 286.247,47.076 287.833,43.97C289.418,40.864 290.211,37.014 290.211,32.42C290.211,27.825 289.418,23.975 287.833,20.869C286.247,17.763 284.128,15.417 281.475,13.832C278.822,12.246 275.91,11.454 272.739,11.454C269.633,11.454 266.753,12.246 264.1,13.832C261.447,15.417 259.328,17.763 257.743,20.869C256.157,23.975 255.365,27.825 255.365,32.42C255.365,37.014 256.157,40.864 257.743,43.97C259.328,47.076 261.447,49.422 264.1,51.007C266.753,52.593 269.633,53.385 272.739,53.385ZM133.16,29.605L143.255,29.605C145.649,29.605 147.801,29.378 149.71,28.925C151.619,28.472 153.139,27.631 154.272,26.402C155.404,25.172 155.971,23.425 155.971,21.16C155.971,18.895 155.404,17.164 154.272,15.967C153.139,14.77 151.619,13.961 149.71,13.54C147.801,13.12 145.649,12.91 143.255,12.91L133.16,12.91L133.16,29.605ZM193.923,27.566L204.017,27.566C207.641,27.566 210.666,27.097 213.093,26.159C215.52,25.221 216.733,23.263 216.733,20.286C216.733,17.245 215.52,15.255 213.093,14.317C210.666,13.379 207.641,12.91 204.017,12.91L193.923,12.91L193.923,27.566Z" style="fill:rgb(26,27,31);"/>
        <text x="113.553px" y="64.839px" style="font-family:'AtkinsonHyperlegible-Bold', 'Atkinson Hyperlegible';font-weight:700;font-size:97.064px;fill-opacity:0;">PR<tspan x="235.758px " y="64.839px ">O</tspan>JE<tspan x="418.724px " y="64.839px ">C</tspan>TS</text>
    </g>
</svg>
